<svg width="60" height="60" viewBox="0 0 60 60" fill="none" xmlns="http://www.w3.org/2000/svg">
    <path fill-rule="evenodd" clip-rule="evenodd"
        d="M7.5 46.875C7.5 45.8395 8.33947 45 9.375 45H50.625C51.6605 45 52.5 45.8395 52.5 46.875C52.5 47.9105 51.6605 48.75 50.625 48.75H9.375C8.33947 48.75 7.5 47.9105 7.5 46.875Z"
        fill="#7D8793" />
    <path fill-rule="evenodd" clip-rule="evenodd"
        d="M7.5 35.625C7.5 34.5895 8.33947 33.75 9.375 33.75H50.625C51.6605 33.75 52.5 34.5895 52.5 35.625C52.5 36.6605 51.6605 37.5 50.625 37.5H9.375C8.33947 37.5 7.5 36.6605 7.5 35.625Z"
        fill="#7D8793" />
    <path fill-rule="evenodd" clip-rule="evenodd"
        d="M7.5 24.375C7.5 23.3395 8.33947 22.5 9.375 22.5H50.625C51.6605 22.5 52.5 23.3395 52.5 24.375C52.5 25.4105 51.6605 26.25 50.625 26.25H9.375C8.33947 26.25 7.5 25.4105 7.5 24.375Z"
        fill="#7D8793" />
    <path fill-rule="evenodd" clip-rule="evenodd"
        d="M7.5 13.125C7.5 12.0895 8.33947 11.25 9.375 11.25H50.625C51.6605 11.25 52.5 12.0895 52.5 13.125C52.5 14.1605 51.6605 15 50.625 15H9.375C8.33947 15 7.5 14.1605 7.5 13.125Z"
        fill="#7D8793" />
</svg>