<svg width="161" height="36" viewBox="0 0 161 36" fill="none" xmlns="http://www.w3.org/2000/svg">
    <path
        d="M159.998 26.2293L159.806 26.464C159.678 26.6062 159.451 26.7911 159.124 27.0186C158.811 27.232 158.427 27.4524 157.972 27.68C157.531 27.8933 156.933 28.0711 156.18 28.2133C155.44 28.3698 154.644 28.448 153.79 28.448C150.903 28.448 148.692 27.6017 147.156 25.9093C145.634 24.2169 144.873 21.9769 144.873 19.1893C144.873 17.6818 145.108 16.3093 145.577 15.072C146.046 13.8346 146.686 12.8106 147.497 12C148.322 11.1751 149.282 10.5422 150.377 10.1013C151.486 9.6462 152.681 9.41864 153.961 9.41864C156.436 9.41864 158.356 10.0089 159.721 11.1893C160.02 11.488 160.169 11.6373 160.169 11.6373L159.849 16.6506L156.82 16.672L155.604 13.408C155.49 13.3795 155.333 13.3653 155.134 13.3653C153.84 13.3653 152.944 13.8133 152.446 14.7093C151.963 15.5911 151.721 17.1271 151.721 19.3173C151.721 20.2702 151.799 21.088 151.956 21.7706C152.112 22.4391 152.29 22.944 152.489 23.2853C152.688 23.6124 152.951 23.8684 153.278 24.0533C153.62 24.2382 153.897 24.3449 154.11 24.3733C154.324 24.4018 154.587 24.416 154.9 24.416C155.611 24.416 156.336 24.3306 157.076 24.16C157.829 23.9893 158.448 23.712 158.932 23.328L159.998 26.2293Z"
        fill="white" />
    <path
        d="M132.367 28H125.476V14.1973L124.196 13.408V11.1253L128.783 9.86667H132.41V12.6187L132.666 12.2987C132.836 12.0711 133.085 11.8009 133.412 11.488C133.754 11.1751 134.131 10.8693 134.543 10.5707C134.955 10.2578 135.446 9.99467 136.015 9.78134C136.598 9.55378 137.167 9.44 137.722 9.44C139.67 9.44 141.043 9.97334 141.839 11.04C142.65 12.1067 143.055 13.8916 143.055 16.3947C143.055 16.48 143.055 16.608 143.055 16.7787C143.041 16.9493 143.034 17.0844 143.034 17.184V28H135.994V16.5653C136.036 15.2284 135.467 14.56 134.287 14.56C134.202 14.56 134.116 14.5671 134.031 14.5813C133.96 14.5956 133.889 14.6098 133.818 14.624C133.761 14.6382 133.69 14.6667 133.604 14.7093C133.533 14.7378 133.469 14.7662 133.412 14.7947C133.355 14.8089 133.291 14.8444 133.22 14.9013C133.149 14.944 133.092 14.9796 133.05 15.008C133.007 15.0364 132.943 15.0862 132.858 15.1573C132.787 15.2142 132.73 15.2569 132.687 15.2853C132.659 15.3138 132.602 15.3636 132.516 15.4347C132.445 15.4916 132.395 15.5342 132.367 15.5627V28Z"
        fill="white" />
    <path
        d="M114.411 35.3386C112.946 35.3386 111.566 35.1253 110.272 34.6986C108.978 34.272 108.032 33.696 107.435 32.9706L108.544 30.6666C109.369 31.136 110.677 31.3706 112.469 31.3706C113.038 31.3706 113.529 31.3066 113.941 31.1786C114.354 31.0506 114.724 30.8231 115.051 30.496C115.378 30.1831 115.627 29.7351 115.797 29.152C115.968 28.5689 116.06 27.8506 116.075 26.9973V25.1626L115.861 25.504C115.719 25.7315 115.499 26.0089 115.2 26.336C114.916 26.6489 114.588 26.9689 114.219 27.296C113.849 27.6089 113.394 27.8791 112.853 28.1066C112.327 28.3342 111.787 28.448 111.232 28.448C109.113 28.448 107.62 27.8577 106.752 26.6773C105.884 25.4826 105.451 23.4773 105.451 20.6613V13.088L104.683 12.32V9.86664H112.448V22.0053C112.448 22.6595 112.548 23.1431 112.747 23.456C112.96 23.7546 113.38 23.904 114.005 23.904C114.19 23.904 114.375 23.8755 114.56 23.8186C114.745 23.7475 114.923 23.6551 115.093 23.5413C115.278 23.4275 115.47 23.2853 115.669 23.1146V13.088L114.496 12.32V9.86664H122.624V25.504C122.624 28.6471 121.956 31.072 120.619 32.7786C119.282 34.4853 117.212 35.3386 114.411 35.3386Z"
        fill="white" />
    <path
        d="M95.0619 28.448C93.9668 28.448 92.9428 28.3484 91.9899 28.1493C91.0513 27.9644 90.2619 27.7155 89.6219 27.4026C88.9819 27.0897 88.4557 26.7911 88.0433 26.5066C87.645 26.2222 87.3108 25.9377 87.0406 25.6533L87.5739 20.4693C88.157 21.2515 88.9393 21.9342 89.9206 22.5173C90.9019 23.0862 91.9615 23.3706 93.0993 23.3706C94.237 23.3706 95.0548 23.2497 95.5526 23.008C96.0646 22.7662 96.3206 22.3253 96.3206 21.6853C96.3206 21.0026 96.029 20.4195 95.4459 19.936C94.877 19.4524 93.8886 18.8693 92.4806 18.1866C91.9686 17.9306 91.5348 17.7031 91.1793 17.504C90.8237 17.2906 90.3473 16.9493 89.7499 16.48C89.1668 15.9964 88.6904 15.4986 88.3206 14.9866C87.9508 14.4604 87.6237 13.792 87.3393 12.9813C87.0548 12.1564 86.9126 11.2746 86.9126 10.336C86.9126 5.25864 89.7784 2.71997 95.5099 2.71997C96.4201 2.71997 97.2735 2.81953 98.0699 3.01864C98.8806 3.20352 99.5135 3.40975 99.9686 3.6373C100.424 3.86486 100.836 4.13508 101.206 4.44797C101.59 4.74664 101.832 4.95997 101.931 5.08797C102.031 5.20175 102.102 5.29419 102.145 5.3653L101.078 9.48264C100.523 8.82841 99.8264 8.34486 98.9873 8.03197C98.1624 7.70486 97.373 7.5413 96.6193 7.5413C94.7988 7.5413 93.8886 8.11019 93.8886 9.24797C93.8886 9.54664 93.9455 9.81686 94.0593 10.0586C94.173 10.3004 94.3579 10.5209 94.6139 10.72C94.8699 10.9191 95.1046 11.0897 95.3179 11.232C95.5455 11.3742 95.8513 11.552 96.2353 11.7653C96.6335 11.9644 96.9322 12.128 97.1313 12.256C99.2077 13.1377 100.729 14.1831 101.697 15.392C102.678 16.6009 103.169 18.0729 103.169 19.808C103.169 22.624 102.472 24.7715 101.078 26.2506C99.6984 27.7155 97.693 28.448 95.0619 28.448Z"
        fill="white" />
    <path
        d="M79.055 16.9707C79.055 15.1644 78.9625 13.8844 78.7776 13.1307C78.5927 12.3769 78.2514 12 77.7536 12C77.327 12 76.9785 12.0782 76.7083 12.2347C76.4381 12.3769 76.239 12.6116 76.111 12.9387C75.983 13.2516 75.8976 13.5787 75.855 13.92C75.8265 14.2471 75.8123 14.6667 75.8123 15.1787V16.9707H79.055ZM77.3483 28.448C75.7554 28.448 74.3687 28.2062 73.1883 27.7227C72.0221 27.2391 71.0976 26.5636 70.415 25.696C69.7465 24.8284 69.2559 23.8542 68.943 22.7733C68.6301 21.6782 68.4736 20.4622 68.4736 19.1253C68.4736 15.9396 69.2843 13.5289 70.9056 11.8933C72.527 10.2578 74.7954 9.44 77.711 9.44C80.5127 9.44 82.5181 10.1013 83.727 11.424C84.9359 12.7324 85.5403 14.8444 85.5403 17.76V20.128H75.791V20.5333C75.791 21.3724 75.8763 22.0622 76.047 22.6027C76.2319 23.1431 76.495 23.5413 76.8363 23.7973C77.1776 24.0533 77.5261 24.224 77.8816 24.3093C78.2372 24.3947 78.671 24.4373 79.183 24.4373C79.6807 24.4373 80.2141 24.3733 80.783 24.2453C81.3661 24.1173 81.9492 23.9182 82.5323 23.648C83.1296 23.3778 83.6274 23.0578 84.0256 22.688L85.2843 24.8427C84.7581 25.696 83.983 26.4142 82.959 26.9973C81.9492 27.5662 80.975 27.9502 80.0363 28.1493C79.0976 28.3484 78.2016 28.448 77.3483 28.448Z"
        fill="white" />
    <path d="M59.6794 28V3.87201L58.3994 3.10401V1.12001L65.2474 0.0533447H66.6341V28H59.6794Z" fill="white" />
    <path
        d="M50.1013 28V14.1973L48.8213 13.408V11.1253L53.408 9.86667H56.9706V28H50.1013ZM53.1946 7.90401L49.696 4.38401V3.63734L53.1946 0.138672H54.0053L57.6533 3.63734V4.38401L54.0053 7.90401H53.1946Z"
        fill="white" />
    <path
        d="M26.367 28H19.4763V14.1973L18.1963 13.408V11.1253L22.783 9.86667H26.4096V12.6187C26.4807 12.5191 26.5803 12.3911 26.7083 12.2347C26.8505 12.064 27.1065 11.8009 27.4763 11.4453C27.8461 11.0898 28.223 10.7769 28.607 10.5067C29.0052 10.2364 29.4816 9.99467 30.0363 9.78134C30.6052 9.55378 31.167 9.44 31.7216 9.44C33.1438 9.44 34.2318 9.71022 34.9856 10.2507C35.7394 10.7911 36.2727 11.6729 36.5856 12.896C37.0692 12.0569 37.8087 11.2747 38.8043 10.5493C39.8141 9.80978 40.9234 9.44 42.1323 9.44C43.4692 9.44 44.5074 9.67467 45.247 10.144C46.0007 10.5991 46.5483 11.3813 46.8896 12.4907C47.231 13.6 47.4016 15.1644 47.4016 17.184V28H40.4683V16.5653C40.4683 15.9396 40.319 15.4489 40.0203 15.0933C39.7216 14.7378 39.2665 14.56 38.655 14.56C38.2425 14.56 37.6807 14.9013 36.9696 15.584C37.0123 16.2667 37.0336 17.0062 37.0336 17.8027V28H29.9936V16.5653C30.0363 15.2284 29.4674 14.56 28.287 14.56C28.2016 14.56 28.1163 14.5671 28.031 14.5813C27.9598 14.5956 27.8887 14.6098 27.8176 14.624C27.7607 14.6382 27.6896 14.6667 27.6043 14.7093C27.5332 14.7378 27.4692 14.7662 27.4123 14.7947C27.3554 14.8089 27.2914 14.8444 27.2203 14.9013C27.1492 14.944 27.0923 14.9796 27.0496 15.008C27.007 15.0364 26.943 15.0862 26.8576 15.1573C26.7865 15.2142 26.7296 15.2569 26.687 15.2853C26.6585 15.3138 26.6016 15.3636 26.5163 15.4347C26.4452 15.4916 26.3954 15.5342 26.367 15.5627V28Z"
        fill="white" />
    <path
        d="M8.87443 28.448C7.77932 28.448 6.75532 28.3484 5.80243 28.1493C4.86376 27.9644 4.07443 27.7155 3.43443 27.4026C2.79443 27.0897 2.26821 26.7911 1.85576 26.5066C1.45754 26.2222 1.12332 25.9377 0.853098 25.6533L1.38643 20.4693C1.96954 21.2515 2.75176 21.9342 3.7331 22.5173C4.71443 23.0862 5.77399 23.3706 6.91176 23.3706C8.04954 23.3706 8.86732 23.2497 9.3651 23.008C9.8771 22.7662 10.1331 22.3253 10.1331 21.6853C10.1331 21.0026 9.84154 20.4195 9.25843 19.936C8.68954 19.4524 7.7011 18.8693 6.2931 18.1866C5.7811 17.9306 5.34732 17.7031 4.99176 17.504C4.63621 17.2906 4.15976 16.9493 3.56243 16.48C2.97932 15.9964 2.50288 15.4986 2.1331 14.9866C1.76332 14.4604 1.43621 13.792 1.15176 12.9813C0.86732 12.1564 0.725098 11.2746 0.725098 10.336C0.725098 5.25864 3.59088 2.71997 9.32243 2.71997C10.2327 2.71997 11.086 2.81953 11.8824 3.01864C12.6931 3.20352 13.326 3.40975 13.7811 3.6373C14.2362 3.86486 14.6487 4.13508 15.0184 4.44797C15.4024 4.74664 15.6442 4.95997 15.7438 5.08797C15.8433 5.20175 15.9144 5.29419 15.9571 5.3653L14.8904 9.48264C14.3358 8.82841 13.6389 8.34486 12.7998 8.03197C11.9749 7.70486 11.1855 7.5413 10.4318 7.5413C8.61132 7.5413 7.7011 8.11019 7.7011 9.24797C7.7011 9.54664 7.75799 9.81686 7.87176 10.0586C7.98554 10.3004 8.17043 10.5209 8.42643 10.72C8.68243 10.9191 8.9171 11.0897 9.13043 11.232C9.35799 11.3742 9.66376 11.552 10.0478 11.7653C10.446 11.9644 10.7447 12.128 10.9438 12.256C13.0202 13.1377 14.542 14.1831 15.5091 15.392C16.4904 16.6009 16.9811 18.0729 16.9811 19.808C16.9811 22.624 16.2842 24.7715 14.8904 26.2506C13.5109 27.7155 11.5055 28.448 8.87443 28.448Z"
        fill="white" />
</svg>