<svg width="161" height="36" viewBox="0 0 161 36" fill="none" xmlns="http://www.w3.org/2000/svg">
    <path
        d="M159.998 26.2293L159.806 26.464C159.678 26.6062 159.451 26.7911 159.124 27.0186C158.811 27.232 158.427 27.4524 157.972 27.68C157.531 27.8933 156.933 28.0711 156.18 28.2133C155.44 28.3698 154.644 28.448 153.79 28.448C150.903 28.448 148.692 27.6017 147.156 25.9093C145.634 24.2169 144.873 21.9769 144.873 19.1893C144.873 17.6818 145.108 16.3093 145.577 15.072C146.046 13.8346 146.686 12.8106 147.497 12C148.322 11.1751 149.282 10.5422 150.377 10.1013C151.486 9.6462 152.681 9.41864 153.961 9.41864C156.436 9.41864 158.356 10.0089 159.721 11.1893C160.02 11.488 160.169 11.6373 160.169 11.6373L159.849 16.6506L156.82 16.672L155.604 13.408C155.49 13.3795 155.333 13.3653 155.134 13.3653C153.84 13.3653 152.944 13.8133 152.446 14.7093C151.963 15.5911 151.721 17.1271 151.721 19.3173C151.721 20.2702 151.799 21.088 151.956 21.7706C152.112 22.4391 152.29 22.944 152.489 23.2853C152.688 23.6124 152.951 23.8684 153.278 24.0533C153.62 24.2382 153.897 24.3449 154.11 24.3733C154.324 24.4018 154.587 24.416 154.9 24.416C155.611 24.416 156.336 24.3306 157.076 24.16C157.829 23.9893 158.448 23.712 158.932 23.328L159.998 26.2293Z"
        fill="#1B7BF7" />
    <path
        d="M132.367 28H125.477V14.1973L124.197 13.408V11.1253L128.783 9.86667H132.41V12.6187L132.666 12.2987C132.837 12.0711 133.085 11.8009 133.413 11.488C133.754 11.1751 134.131 10.8693 134.543 10.5707C134.956 10.2578 135.446 9.99467 136.015 9.78134C136.598 9.55378 137.167 9.44 137.722 9.44C139.67 9.44 141.043 9.97334 141.839 11.04C142.65 12.1067 143.055 13.8916 143.055 16.3947C143.055 16.48 143.055 16.608 143.055 16.7787C143.041 16.9493 143.034 17.0844 143.034 17.184V28H135.994V16.5653C136.037 15.2284 135.468 14.56 134.287 14.56C134.202 14.56 134.117 14.5671 134.031 14.5813C133.96 14.5956 133.889 14.6098 133.818 14.624C133.761 14.6382 133.69 14.6667 133.605 14.7093C133.533 14.7378 133.469 14.7662 133.413 14.7947C133.356 14.8089 133.292 14.8444 133.221 14.9013C133.149 14.944 133.093 14.9796 133.05 15.008C133.007 15.0364 132.943 15.0862 132.858 15.1573C132.787 15.2142 132.73 15.2569 132.687 15.2853C132.659 15.3138 132.602 15.3636 132.517 15.4347C132.445 15.4916 132.396 15.5342 132.367 15.5627V28Z"
        fill="#1B7BF7" />
    <path
        d="M114.411 35.3386C112.946 35.3386 111.566 35.1253 110.272 34.6986C108.978 34.272 108.032 33.696 107.435 32.9706L108.544 30.6666C109.369 31.136 110.677 31.3706 112.469 31.3706C113.038 31.3706 113.529 31.3066 113.941 31.1786C114.354 31.0506 114.724 30.8231 115.051 30.496C115.378 30.1831 115.627 29.7351 115.797 29.152C115.968 28.5689 116.06 27.8506 116.075 26.9973V25.1626L115.861 25.504C115.719 25.7315 115.499 26.0089 115.2 26.336C114.916 26.6489 114.588 26.9689 114.219 27.296C113.849 27.6089 113.394 27.8791 112.853 28.1066C112.327 28.3342 111.787 28.448 111.232 28.448C109.113 28.448 107.62 27.8577 106.752 26.6773C105.884 25.4826 105.451 23.4773 105.451 20.6613V13.088L104.683 12.32V9.86664H112.448V22.0053C112.448 22.6595 112.548 23.1431 112.747 23.456C112.96 23.7546 113.38 23.904 114.005 23.904C114.19 23.904 114.375 23.8755 114.56 23.8186C114.745 23.7475 114.923 23.6551 115.093 23.5413C115.278 23.4275 115.47 23.2853 115.669 23.1146V13.088L114.496 12.32V9.86664H122.624V25.504C122.624 28.6471 121.956 31.072 120.619 32.7786C119.282 34.4853 117.212 35.3386 114.411 35.3386Z"
        fill="#1B7BF7" />
    <path
        d="M95.0622 28.448C93.9671 28.448 92.9431 28.3484 91.9902 28.1493C91.0515 27.9644 90.2622 27.7155 89.6222 27.4026C88.9822 27.0897 88.456 26.7911 88.0435 26.5066C87.6453 26.2222 87.3111 25.9377 87.0408 25.6533L87.5742 20.4693C88.1573 21.2515 88.9395 21.9342 89.9208 22.5173C90.9022 23.0862 91.9617 23.3706 93.0995 23.3706C94.2373 23.3706 95.0551 23.2497 95.5528 23.008C96.0648 22.7662 96.3208 22.3253 96.3208 21.6853C96.3208 21.0026 96.0293 20.4195 95.4462 19.936C94.8773 19.4524 93.8888 18.8693 92.4808 18.1866C91.9688 17.9306 91.5351 17.7031 91.1795 17.504C90.8239 17.2906 90.3475 16.9493 89.7502 16.48C89.1671 15.9964 88.6906 15.4986 88.3208 14.9866C87.9511 14.4604 87.624 13.792 87.3395 12.9813C87.0551 12.1564 86.9128 11.2746 86.9128 10.336C86.9128 5.25864 89.7786 2.71997 95.5102 2.71997C96.4204 2.71997 97.2737 2.81953 98.0702 3.01864C98.8808 3.20352 99.5137 3.40975 99.9688 3.6373C100.424 3.86486 100.836 4.13508 101.206 4.44797C101.59 4.74664 101.832 4.95997 101.932 5.08797C102.031 5.20175 102.102 5.29419 102.145 5.3653L101.078 9.48264C100.524 8.82841 99.8266 8.34486 98.9875 8.03197C98.1626 7.70486 97.3733 7.5413 96.6195 7.5413C94.7991 7.5413 93.8888 8.11019 93.8888 9.24797C93.8888 9.54664 93.9457 9.81686 94.0595 10.0586C94.1733 10.3004 94.3582 10.5209 94.6142 10.72C94.8702 10.9191 95.1048 11.0897 95.3182 11.232C95.5457 11.3742 95.8515 11.552 96.2355 11.7653C96.6337 11.9644 96.9324 12.128 97.1315 12.256C99.208 13.1377 100.73 14.1831 101.697 15.392C102.678 16.6009 103.169 18.0729 103.169 19.808C103.169 22.624 102.472 24.7715 101.078 26.2506C99.6986 27.7155 97.6933 28.448 95.0622 28.448Z"
        fill="#1B7BF7" />
    <path
        d="M79.0552 16.9707C79.0552 15.1644 78.9628 13.8844 78.7779 13.1307C78.593 12.3769 78.2517 12 77.7539 12C77.3272 12 76.9788 12.0782 76.7085 12.2347C76.4383 12.3769 76.2392 12.6116 76.1112 12.9387C75.9832 13.2516 75.8979 13.5787 75.8552 13.92C75.8268 14.2471 75.8125 14.6667 75.8125 15.1787V16.9707H79.0552ZM77.3485 28.448C75.7557 28.448 74.369 28.2062 73.1885 27.7227C72.0223 27.2391 71.0979 26.5636 70.4152 25.696C69.7468 24.8284 69.2561 23.8542 68.9432 22.7733C68.6303 21.6782 68.4739 20.4622 68.4739 19.1253C68.4739 15.9396 69.2845 13.5289 70.9059 11.8933C72.5272 10.2578 74.7957 9.44 77.7112 9.44C80.513 9.44 82.5183 10.1013 83.7272 11.424C84.9361 12.7324 85.5405 14.8444 85.5405 17.76V20.128H75.7912V20.5333C75.7912 21.3724 75.8765 22.0622 76.0472 22.6027C76.2321 23.1431 76.4952 23.5413 76.8365 23.7973C77.1779 24.0533 77.5263 24.224 77.8819 24.3093C78.2374 24.3947 78.6712 24.4373 79.1832 24.4373C79.681 24.4373 80.2143 24.3733 80.7832 24.2453C81.3663 24.1173 81.9494 23.9182 82.5325 23.648C83.1299 23.3778 83.6277 23.0578 84.0259 22.688L85.2845 24.8427C84.7583 25.696 83.9832 26.4142 82.9592 26.9973C81.9494 27.5662 80.9752 27.9502 80.0365 28.1493C79.0979 28.3484 78.2019 28.448 77.3485 28.448Z"
        fill="#1B7BF7" />
    <path d="M59.6794 28V3.87201L58.3994 3.10401V1.12001L65.2474 0.0533447H66.6341V28H59.6794Z" fill="#1B7BF7" />
    <path
        d="M50.1015 28V14.1973L48.8215 13.408V11.1253L53.4082 9.86667H56.9709V28H50.1015ZM53.1949 7.90401L49.6962 4.38401V3.63734L53.1949 0.138672H54.0055L57.6535 3.63734V4.38401L54.0055 7.90401H53.1949Z"
        fill="#1B7BF7" />
    <path
        d="M26.3672 28H19.4765V14.1973L18.1965 13.408V11.1253L22.7832 9.86667H26.4099V12.6187C26.481 12.5191 26.5805 12.3911 26.7085 12.2347C26.8508 12.064 27.1068 11.8009 27.4765 11.4453C27.8463 11.0898 28.2232 10.7769 28.6072 10.5067C29.0054 10.2364 29.4819 9.99467 30.0365 9.78134C30.6054 9.55378 31.1672 9.44 31.7219 9.44C33.1441 9.44 34.2321 9.71022 34.9859 10.2507C35.7396 10.7911 36.273 11.6729 36.5859 12.896C37.0694 12.0569 37.809 11.2747 38.8045 10.5493C39.8143 9.80978 40.9236 9.44 42.1325 9.44C43.4694 9.44 44.5076 9.67467 45.2472 10.144C46.001 10.5991 46.5485 11.3813 46.8899 12.4907C47.2312 13.6 47.4019 15.1644 47.4019 17.184V28H40.4685V16.5653C40.4685 15.9396 40.3192 15.4489 40.0205 15.0933C39.7219 14.7378 39.2668 14.56 38.6552 14.56C38.2428 14.56 37.681 14.9013 36.9699 15.584C37.0125 16.2667 37.0339 17.0062 37.0339 17.8027V28H29.9939V16.5653C30.0365 15.2284 29.4676 14.56 28.2872 14.56C28.2019 14.56 28.1165 14.5671 28.0312 14.5813C27.9601 14.5956 27.889 14.6098 27.8179 14.624C27.761 14.6382 27.6899 14.6667 27.6045 14.7093C27.5334 14.7378 27.4694 14.7662 27.4125 14.7947C27.3556 14.8089 27.2916 14.8444 27.2205 14.9013C27.1494 14.944 27.0925 14.9796 27.0499 15.008C27.0072 15.0364 26.9432 15.0862 26.8579 15.1573C26.7868 15.2142 26.7299 15.2569 26.6872 15.2853C26.6588 15.3138 26.6019 15.3636 26.5165 15.4347C26.4454 15.4916 26.3956 15.5342 26.3672 15.5627V28Z"
        fill="#1B7BF7" />
    <path
        d="M8.87467 28.448C7.77956 28.448 6.75556 28.3484 5.80268 28.1493C4.86401 27.9644 4.07468 27.7155 3.43468 27.4026C2.79468 27.0897 2.26845 26.7911 1.85601 26.5066C1.45779 26.2222 1.12356 25.9377 0.853342 25.6533L1.38668 20.4693C1.96979 21.2515 2.75201 21.9342 3.73334 22.5173C4.71467 23.0862 5.77423 23.3706 6.91201 23.3706C8.04979 23.3706 8.86756 23.2497 9.36534 23.008C9.87734 22.7662 10.1333 22.3253 10.1333 21.6853C10.1333 21.0026 9.84179 20.4195 9.25868 19.936C8.68979 19.4524 7.70134 18.8693 6.29334 18.1866C5.78134 17.9306 5.34756 17.7031 4.99201 17.504C4.63645 17.2906 4.16001 16.9493 3.56267 16.48C2.97956 15.9964 2.50312 15.4986 2.13334 14.9866C1.76356 14.4604 1.43645 13.792 1.15201 12.9813C0.867564 12.1564 0.725342 11.2746 0.725342 10.336C0.725342 5.25864 3.59112 2.71997 9.32267 2.71997C10.2329 2.71997 11.0862 2.81953 11.8827 3.01864C12.6933 3.20352 13.3262 3.40975 13.7813 3.6373C14.2365 3.86486 14.6489 4.13508 15.0187 4.44797C15.4027 4.74664 15.6445 4.95997 15.744 5.08797C15.8436 5.20175 15.9147 5.29419 15.9573 5.3653L14.8907 9.48264C14.336 8.82841 13.6391 8.34486 12.8 8.03197C11.9751 7.70486 11.1858 7.5413 10.432 7.5413C8.61156 7.5413 7.70134 8.11019 7.70134 9.24797C7.70134 9.54664 7.75823 9.81686 7.87201 10.0586C7.98579 10.3004 8.17067 10.5209 8.42667 10.72C8.68268 10.9191 8.91734 11.0897 9.13068 11.232C9.35823 11.3742 9.66401 11.552 10.048 11.7653C10.4462 11.9644 10.7449 12.128 10.944 12.256C13.0205 13.1377 14.5422 14.1831 15.5093 15.392C16.4907 16.6009 16.9813 18.0729 16.9813 19.808C16.9813 22.624 16.2845 24.7715 14.8907 26.2506C13.5111 27.7155 11.5058 28.448 8.87467 28.448Z"
        fill="#1B7BF7" />
</svg>